<mxfile host="Electron" agent="Mozilla/5.0 (Windows NT 10.0; Win64; x64) AppleWebKit/537.36 (KHTML, like Gecko) draw.io/24.7.17 Chrome/128.0.6613.36 Electron/32.0.1 Safari/537.36" version="24.7.17">
  <diagram name="‫עמוד-1‬" id="vFyiG62exTAV2jF-CAXr">
    <mxGraphModel dx="1434" dy="836" grid="1" gridSize="10" guides="1" tooltips="1" connect="1" arrows="1" fold="1" page="1" pageScale="1" pageWidth="827" pageHeight="1169" math="0" shadow="0">
      <root>
        <mxCell id="0" />
        <mxCell id="1" parent="0" />
        <mxCell id="yFJfsKkSlzlbEC3aJtm--1" value="&lt;font style=&quot;&quot; size=&quot;1&quot;&gt;&lt;span style=&quot;font-size: 20px;&quot;&gt;0&lt;/span&gt;&lt;/font&gt;" style="ellipse;whiteSpace=wrap;html=1;aspect=fixed;fillColor=#086E67;strokeColor=#3039BF;gradientColor=#2626E0;fontStyle=1" parent="1" vertex="1">
          <mxGeometry x="50" y="720" width="80" height="80" as="geometry" />
        </mxCell>
        <mxCell id="yFJfsKkSlzlbEC3aJtm--2" value="&lt;font style=&quot;font-size: 20px;&quot;&gt;&lt;b&gt;1&lt;/b&gt;&lt;/font&gt;" style="ellipse;whiteSpace=wrap;html=1;aspect=fixed;fillColor=#086E67;strokeColor=#3039BF;gradientColor=#2626E0;" parent="1" vertex="1">
          <mxGeometry x="210" y="760" width="80" height="80" as="geometry" />
        </mxCell>
        <mxCell id="yFJfsKkSlzlbEC3aJtm--3" value="&lt;font style=&quot;font-size: 20px;&quot;&gt;&lt;b&gt;2&lt;/b&gt;&lt;/font&gt;" style="ellipse;whiteSpace=wrap;html=1;aspect=fixed;fillColor=#086E67;strokeColor=#3039BF;gradientColor=#2626E0;" parent="1" vertex="1">
          <mxGeometry x="130" y="630" width="80" height="80" as="geometry" />
        </mxCell>
        <mxCell id="yFJfsKkSlzlbEC3aJtm--4" value="&lt;font style=&quot;font-size: 20px;&quot;&gt;&lt;b&gt;3&lt;/b&gt;&lt;/font&gt;" style="ellipse;whiteSpace=wrap;html=1;aspect=fixed;fillColor=#086E67;strokeColor=#3039BF;gradientColor=#2626E0;" parent="1" vertex="1">
          <mxGeometry x="334" y="790" width="80" height="80" as="geometry" />
        </mxCell>
        <mxCell id="yFJfsKkSlzlbEC3aJtm--5" value="&lt;font style=&quot;font-size: 18px;&quot;&gt;&lt;b&gt;4&lt;/b&gt;&lt;/font&gt;" style="ellipse;whiteSpace=wrap;html=1;aspect=fixed;fillColor=#086E67;strokeColor=#3039BF;gradientColor=#2626E0;fontSize=12;" parent="1" vertex="1">
          <mxGeometry x="270" y="660" width="80" height="80" as="geometry" />
        </mxCell>
        <mxCell id="yFJfsKkSlzlbEC3aJtm--6" value="&lt;font style=&quot;font-size: 20px;&quot;&gt;&lt;b&gt;9&lt;/b&gt;&lt;/font&gt;" style="ellipse;whiteSpace=wrap;html=1;aspect=fixed;fillColor=#086E67;strokeColor=#3039BF;gradientColor=#2626E0;" parent="1" vertex="1">
          <mxGeometry x="200" y="400" width="80" height="80" as="geometry" />
        </mxCell>
        <mxCell id="yFJfsKkSlzlbEC3aJtm--7" value="&lt;font style=&quot;font-size: 20px;&quot;&gt;&lt;b&gt;8&lt;/b&gt;&lt;/font&gt;" style="ellipse;whiteSpace=wrap;html=1;aspect=fixed;fillColor=#086E67;strokeColor=#3039BF;gradientColor=#2626E0;" parent="1" vertex="1">
          <mxGeometry x="310" y="450" width="80" height="80" as="geometry" />
        </mxCell>
        <mxCell id="yFJfsKkSlzlbEC3aJtm--8" value="&lt;span style=&quot;font-size: 20px;&quot;&gt;&lt;b&gt;5&lt;/b&gt;&lt;/span&gt;" style="ellipse;whiteSpace=wrap;html=1;aspect=fixed;fillColor=#086E67;strokeColor=#3039BF;gradientColor=#2626E0;" parent="1" vertex="1">
          <mxGeometry x="390" y="690" width="80" height="80" as="geometry" />
        </mxCell>
        <mxCell id="yFJfsKkSlzlbEC3aJtm--9" value="&lt;span style=&quot;font-size: 20px;&quot;&gt;&lt;b&gt;10&lt;/b&gt;&lt;/span&gt;" style="ellipse;whiteSpace=wrap;html=1;aspect=fixed;fillColor=#086E67;strokeColor=#3039BF;gradientColor=#2626E0;" parent="1" vertex="1">
          <mxGeometry x="440" y="440" width="80" height="80" as="geometry" />
        </mxCell>
        <mxCell id="yFJfsKkSlzlbEC3aJtm--10" value="&lt;span style=&quot;font-size: 20px;&quot;&gt;&lt;b&gt;6&lt;/b&gt;&lt;/span&gt;" style="ellipse;whiteSpace=wrap;html=1;aspect=fixed;fillColor=#086E67;strokeColor=#3039BF;gradientColor=#2626E0;" parent="1" vertex="1">
          <mxGeometry x="190" y="530" width="80" height="80" as="geometry" />
        </mxCell>
        <mxCell id="yFJfsKkSlzlbEC3aJtm--12" value="&lt;font style=&quot;font-size: 20px;&quot;&gt;&lt;b&gt;11&lt;/b&gt;&lt;/font&gt;" style="ellipse;whiteSpace=wrap;html=1;aspect=fixed;fillColor=#086E67;strokeColor=#3039BF;gradientColor=#2626E0;" parent="1" vertex="1">
          <mxGeometry x="470" y="570" width="80" height="80" as="geometry" />
        </mxCell>
        <mxCell id="yFJfsKkSlzlbEC3aJtm--13" value="&lt;font style=&quot;font-size: 20px;&quot;&gt;&lt;b&gt;7&lt;/b&gt;&lt;/font&gt;" style="ellipse;whiteSpace=wrap;html=1;aspect=fixed;fillColor=#086E67;strokeColor=#3039BF;gradientColor=#2626E0;" parent="1" vertex="1">
          <mxGeometry x="350" y="550" width="80" height="80" as="geometry" />
        </mxCell>
        <mxCell id="yFJfsKkSlzlbEC3aJtm--14" value="" style="endArrow=none;html=1;rounded=0;entryX=0;entryY=0.5;entryDx=0;entryDy=0;strokeColor=#08612E;strokeWidth=6;exitX=1;exitY=0.5;exitDx=0;exitDy=0;" parent="1" source="yFJfsKkSlzlbEC3aJtm--1" target="yFJfsKkSlzlbEC3aJtm--2" edge="1">
          <mxGeometry width="50" height="50" relative="1" as="geometry">
            <mxPoint x="150" y="840" as="sourcePoint" />
            <mxPoint x="210" y="780" as="targetPoint" />
          </mxGeometry>
        </mxCell>
        <mxCell id="yFJfsKkSlzlbEC3aJtm--16" value="" style="endArrow=none;html=1;rounded=0;entryX=0;entryY=1;entryDx=0;entryDy=0;strokeColor=#08612E;strokeWidth=6;exitX=1;exitY=0;exitDx=0;exitDy=0;" parent="1" source="yFJfsKkSlzlbEC3aJtm--1" target="yFJfsKkSlzlbEC3aJtm--3" edge="1">
          <mxGeometry width="50" height="50" relative="1" as="geometry">
            <mxPoint x="140" y="770" as="sourcePoint" />
            <mxPoint x="220" y="790" as="targetPoint" />
          </mxGeometry>
        </mxCell>
        <mxCell id="yFJfsKkSlzlbEC3aJtm--17" value="" style="endArrow=none;html=1;rounded=0;entryX=0;entryY=0.5;entryDx=0;entryDy=0;strokeColor=#08612E;strokeWidth=6;exitX=1;exitY=1;exitDx=0;exitDy=0;" parent="1" source="yFJfsKkSlzlbEC3aJtm--2" target="yFJfsKkSlzlbEC3aJtm--4" edge="1">
          <mxGeometry width="50" height="50" relative="1" as="geometry">
            <mxPoint x="140" y="770" as="sourcePoint" />
            <mxPoint x="220" y="790" as="targetPoint" />
          </mxGeometry>
        </mxCell>
        <mxCell id="yFJfsKkSlzlbEC3aJtm--18" value="" style="endArrow=none;html=1;rounded=0;entryX=0;entryY=0.5;entryDx=0;entryDy=0;strokeColor=#08612E;strokeWidth=6;exitX=1;exitY=1;exitDx=0;exitDy=0;" parent="1" source="yFJfsKkSlzlbEC3aJtm--3" target="yFJfsKkSlzlbEC3aJtm--5" edge="1">
          <mxGeometry width="50" height="50" relative="1" as="geometry">
            <mxPoint x="128" y="742" as="sourcePoint" />
            <mxPoint x="172" y="708" as="targetPoint" />
          </mxGeometry>
        </mxCell>
        <mxCell id="yFJfsKkSlzlbEC3aJtm--19" value="" style="endArrow=none;html=1;rounded=0;entryX=0;entryY=1;entryDx=0;entryDy=0;strokeColor=#08612E;strokeWidth=6;exitX=0.5;exitY=0;exitDx=0;exitDy=0;" parent="1" source="yFJfsKkSlzlbEC3aJtm--3" target="yFJfsKkSlzlbEC3aJtm--10" edge="1">
          <mxGeometry width="50" height="50" relative="1" as="geometry">
            <mxPoint x="228" y="652" as="sourcePoint" />
            <mxPoint x="290" y="635" as="targetPoint" />
          </mxGeometry>
        </mxCell>
        <mxCell id="yFJfsKkSlzlbEC3aJtm--20" value="" style="endArrow=none;html=1;rounded=0;strokeColor=#08612E;strokeWidth=6;exitX=1;exitY=0;exitDx=0;exitDy=0;" parent="1" source="yFJfsKkSlzlbEC3aJtm--4" target="yFJfsKkSlzlbEC3aJtm--8" edge="1">
          <mxGeometry width="50" height="50" relative="1" as="geometry">
            <mxPoint x="300" y="790" as="sourcePoint" />
            <mxPoint x="370" y="790" as="targetPoint" />
          </mxGeometry>
        </mxCell>
        <mxCell id="yFJfsKkSlzlbEC3aJtm--21" value="" style="endArrow=none;html=1;rounded=0;entryX=0;entryY=0;entryDx=0;entryDy=0;strokeColor=#08612E;strokeWidth=6;exitX=1;exitY=1;exitDx=0;exitDy=0;" parent="1" source="yFJfsKkSlzlbEC3aJtm--10" target="yFJfsKkSlzlbEC3aJtm--5" edge="1">
          <mxGeometry width="50" height="50" relative="1" as="geometry">
            <mxPoint x="228" y="652" as="sourcePoint" />
            <mxPoint x="300" y="640" as="targetPoint" />
          </mxGeometry>
        </mxCell>
        <mxCell id="yFJfsKkSlzlbEC3aJtm--22" value="" style="endArrow=none;html=1;rounded=0;strokeColor=#08612E;strokeWidth=6;exitX=1;exitY=0.5;exitDx=0;exitDy=0;" parent="1" source="yFJfsKkSlzlbEC3aJtm--5" target="yFJfsKkSlzlbEC3aJtm--8" edge="1">
          <mxGeometry width="50" height="50" relative="1" as="geometry">
            <mxPoint x="238" y="568" as="sourcePoint" />
            <mxPoint x="312" y="612" as="targetPoint" />
          </mxGeometry>
        </mxCell>
        <mxCell id="yFJfsKkSlzlbEC3aJtm--23" value="" style="endArrow=none;html=1;rounded=0;entryX=0;entryY=1;entryDx=0;entryDy=0;strokeColor=#08612E;strokeWidth=6;exitX=0.5;exitY=0;exitDx=0;exitDy=0;" parent="1" source="yFJfsKkSlzlbEC3aJtm--5" target="yFJfsKkSlzlbEC3aJtm--13" edge="1">
          <mxGeometry width="50" height="50" relative="1" as="geometry">
            <mxPoint x="240" y="680" as="sourcePoint" />
            <mxPoint x="310" y="650" as="targetPoint" />
          </mxGeometry>
        </mxCell>
        <mxCell id="yFJfsKkSlzlbEC3aJtm--24" value="" style="endArrow=none;html=1;rounded=0;entryX=0.5;entryY=1;entryDx=0;entryDy=0;strokeColor=#08612E;strokeWidth=6;exitX=0;exitY=0;exitDx=0;exitDy=0;" parent="1" source="yFJfsKkSlzlbEC3aJtm--13" target="yFJfsKkSlzlbEC3aJtm--7" edge="1">
          <mxGeometry width="50" height="50" relative="1" as="geometry">
            <mxPoint x="380" y="510" as="sourcePoint" />
            <mxPoint x="422" y="583" as="targetPoint" />
          </mxGeometry>
        </mxCell>
        <mxCell id="yFJfsKkSlzlbEC3aJtm--25" value="" style="endArrow=none;html=1;rounded=0;strokeColor=#08612E;strokeWidth=6;exitX=1;exitY=0;exitDx=0;exitDy=0;entryX=0;entryY=1;entryDx=0;entryDy=0;" parent="1" source="yFJfsKkSlzlbEC3aJtm--8" target="yFJfsKkSlzlbEC3aJtm--12" edge="1">
          <mxGeometry width="50" height="50" relative="1" as="geometry">
            <mxPoint x="412" y="812" as="sourcePoint" />
            <mxPoint x="426" y="777" as="targetPoint" />
          </mxGeometry>
        </mxCell>
        <mxCell id="yFJfsKkSlzlbEC3aJtm--26" value="" style="endArrow=none;html=1;rounded=0;entryX=0;entryY=1;entryDx=0;entryDy=0;strokeColor=#08612E;strokeWidth=6;exitX=1;exitY=0;exitDx=0;exitDy=0;" parent="1" source="yFJfsKkSlzlbEC3aJtm--10" target="yFJfsKkSlzlbEC3aJtm--7" edge="1">
          <mxGeometry width="50" height="50" relative="1" as="geometry">
            <mxPoint x="238" y="568" as="sourcePoint" />
            <mxPoint x="302" y="642" as="targetPoint" />
          </mxGeometry>
        </mxCell>
        <mxCell id="yFJfsKkSlzlbEC3aJtm--30" value="" style="endArrow=none;html=1;rounded=0;entryX=0.5;entryY=1;entryDx=0;entryDy=0;strokeColor=#08612E;strokeWidth=6;exitX=0.5;exitY=0;exitDx=0;exitDy=0;" parent="1" source="yFJfsKkSlzlbEC3aJtm--10" target="yFJfsKkSlzlbEC3aJtm--6" edge="1">
          <mxGeometry width="50" height="50" relative="1" as="geometry">
            <mxPoint x="268" y="552" as="sourcePoint" />
            <mxPoint x="312" y="538" as="targetPoint" />
          </mxGeometry>
        </mxCell>
        <mxCell id="yFJfsKkSlzlbEC3aJtm--31" value="" style="endArrow=none;html=1;rounded=0;entryX=0;entryY=0;entryDx=0;entryDy=0;strokeColor=#08612E;strokeWidth=6;exitX=1;exitY=0;exitDx=0;exitDy=0;" parent="1" source="yFJfsKkSlzlbEC3aJtm--6" target="yFJfsKkSlzlbEC3aJtm--9" edge="1">
          <mxGeometry width="50" height="50" relative="1" as="geometry">
            <mxPoint x="340" y="400" as="sourcePoint" />
            <mxPoint x="332" y="528" as="targetPoint" />
          </mxGeometry>
        </mxCell>
        <mxCell id="yFJfsKkSlzlbEC3aJtm--32" value="" style="endArrow=none;html=1;rounded=0;entryX=1;entryY=1;entryDx=0;entryDy=0;strokeColor=#08612E;strokeWidth=6;exitX=0;exitY=0.5;exitDx=0;exitDy=0;" parent="1" source="yFJfsKkSlzlbEC3aJtm--7" target="yFJfsKkSlzlbEC3aJtm--6" edge="1">
          <mxGeometry width="50" height="50" relative="1" as="geometry">
            <mxPoint x="268" y="552" as="sourcePoint" />
            <mxPoint x="332" y="528" as="targetPoint" />
          </mxGeometry>
        </mxCell>
        <mxCell id="yFJfsKkSlzlbEC3aJtm--33" value="" style="endArrow=none;html=1;rounded=0;entryX=0;entryY=0;entryDx=0;entryDy=0;strokeColor=#08612E;strokeWidth=6;exitX=0;exitY=0;exitDx=0;exitDy=0;" parent="1" source="yFJfsKkSlzlbEC3aJtm--10" target="yFJfsKkSlzlbEC3aJtm--9" edge="1">
          <mxGeometry width="50" height="50" relative="1" as="geometry">
            <mxPoint x="240" y="540" as="sourcePoint" />
            <mxPoint x="250" y="490" as="targetPoint" />
            <Array as="points">
              <mxPoint x="130" y="400" />
              <mxPoint x="390" y="370" />
            </Array>
          </mxGeometry>
        </mxCell>
        <mxCell id="yFJfsKkSlzlbEC3aJtm--34" value="" style="endArrow=none;html=1;rounded=0;strokeColor=#08612E;strokeWidth=6;exitX=0.5;exitY=0;exitDx=0;exitDy=0;entryX=0.5;entryY=1;entryDx=0;entryDy=0;" parent="1" source="yFJfsKkSlzlbEC3aJtm--12" target="yFJfsKkSlzlbEC3aJtm--9" edge="1">
          <mxGeometry width="50" height="50" relative="1" as="geometry">
            <mxPoint x="468" y="712" as="sourcePoint" />
            <mxPoint x="492" y="648" as="targetPoint" />
          </mxGeometry>
        </mxCell>
        <mxCell id="yFJfsKkSlzlbEC3aJtm--35" value="" style="endArrow=classic;html=1;rounded=1;curved=0;" parent="1" edge="1">
          <mxGeometry width="50" height="50" relative="1" as="geometry">
            <mxPoint x="110" y="720" as="sourcePoint" />
            <mxPoint x="130" y="690" as="targetPoint" />
          </mxGeometry>
        </mxCell>
        <mxCell id="yFJfsKkSlzlbEC3aJtm--36" value="" style="endArrow=classic;html=1;rounded=1;exitX=0.195;exitY=0.125;exitDx=0;exitDy=0;exitPerimeter=0;curved=0;" parent="1" edge="1">
          <mxGeometry width="50" height="50" relative="1" as="geometry">
            <mxPoint x="159.54000000000002" y="625" as="sourcePoint" />
            <mxPoint x="190.00484341793324" y="596.9754430116209" as="targetPoint" />
          </mxGeometry>
        </mxCell>
        <mxCell id="yFJfsKkSlzlbEC3aJtm--37" value="" style="endArrow=classic;html=1;rounded=1;exitX=0.195;exitY=0.125;exitDx=0;exitDy=0;exitPerimeter=0;curved=0;" parent="1" edge="1">
          <mxGeometry width="50" height="50" relative="1" as="geometry">
            <mxPoint x="200.00000000000003" y="550" as="sourcePoint" />
            <mxPoint x="450" y="440" as="targetPoint" />
            <Array as="points">
              <mxPoint x="110" y="390" />
              <mxPoint x="400" y="360" />
            </Array>
          </mxGeometry>
        </mxCell>
        <mxCell id="yFJfsKkSlzlbEC3aJtm--38" value="" style="endArrow=classic;html=1;rounded=1;curved=0;" parent="1" edge="1">
          <mxGeometry width="50" height="50" relative="1" as="geometry">
            <mxPoint x="289.77" y="820" as="sourcePoint" />
            <mxPoint x="330.23484341793323" y="819.9954430116209" as="targetPoint" />
          </mxGeometry>
        </mxCell>
        <mxCell id="yFJfsKkSlzlbEC3aJtm--39" value="" style="endArrow=classic;html=1;rounded=1;curved=0;" parent="1" edge="1">
          <mxGeometry width="50" height="50" relative="1" as="geometry">
            <mxPoint x="414" y="800" as="sourcePoint" />
            <mxPoint x="424.23" y="770" as="targetPoint" />
          </mxGeometry>
        </mxCell>
        <mxCell id="yFJfsKkSlzlbEC3aJtm--40" value="" style="endArrow=classic;html=1;rounded=1;curved=0;" parent="1" edge="1">
          <mxGeometry width="50" height="50" relative="1" as="geometry">
            <mxPoint x="390" y="720" as="sourcePoint" />
            <mxPoint x="354.40999999999997" y="710" as="targetPoint" />
          </mxGeometry>
        </mxCell>
        <mxCell id="yFJfsKkSlzlbEC3aJtm--42" value="" style="endArrow=classic;html=1;rounded=1;curved=0;" parent="1" edge="1">
          <mxGeometry width="50" height="50" relative="1" as="geometry">
            <mxPoint x="260" y="670" as="sourcePoint" />
            <mxPoint x="250" y="610" as="targetPoint" />
          </mxGeometry>
        </mxCell>
        <mxCell id="yFJfsKkSlzlbEC3aJtm--43" value="" style="endArrow=classic;html=1;rounded=1;curved=0;" parent="1" edge="1">
          <mxGeometry width="50" height="50" relative="1" as="geometry">
            <mxPoint x="350" y="560" as="sourcePoint" />
            <mxPoint x="340" y="530" as="targetPoint" />
          </mxGeometry>
        </mxCell>
        <mxCell id="yFJfsKkSlzlbEC3aJtm--44" value="" style="endArrow=classic;html=1;rounded=1;curved=0;" parent="1" edge="1">
          <mxGeometry width="50" height="50" relative="1" as="geometry">
            <mxPoint x="320" y="540" as="sourcePoint" />
            <mxPoint x="280" y="550" as="targetPoint" />
          </mxGeometry>
        </mxCell>
        <mxCell id="yFJfsKkSlzlbEC3aJtm--45" value="" style="endArrow=classic;html=1;rounded=1;curved=0;" parent="1" edge="1">
          <mxGeometry width="50" height="50" relative="1" as="geometry">
            <mxPoint x="290" y="410" as="sourcePoint" />
            <mxPoint x="430" y="440" as="targetPoint" />
          </mxGeometry>
        </mxCell>
        <mxCell id="yFJfsKkSlzlbEC3aJtm--46" value="" style="endArrow=classic;html=1;rounded=1;curved=0;" parent="1" edge="1">
          <mxGeometry width="50" height="50" relative="1" as="geometry">
            <mxPoint x="500" y="520" as="sourcePoint" />
            <mxPoint x="520" y="560" as="targetPoint" />
          </mxGeometry>
        </mxCell>
        <mxCell id="yFJfsKkSlzlbEC3aJtm--47" value="" style="endArrow=classic;html=1;rounded=1;curved=0;" parent="1" edge="1">
          <mxGeometry width="50" height="50" relative="1" as="geometry">
            <mxPoint x="490" y="650" as="sourcePoint" />
            <mxPoint x="470" y="700" as="targetPoint" />
          </mxGeometry>
        </mxCell>
        <mxCell id="yFJfsKkSlzlbEC3aJtm--48" value="" style="endArrow=classic;html=1;rounded=1;curved=0;fillColor=#d80073;strokeColor=#A50040;" parent="1" edge="1">
          <mxGeometry width="50" height="50" relative="1" as="geometry">
            <mxPoint x="140" y="780" as="sourcePoint" />
            <mxPoint x="200" y="810" as="targetPoint" />
          </mxGeometry>
        </mxCell>
        <mxCell id="yFJfsKkSlzlbEC3aJtm--49" value="" style="endArrow=classic;html=1;rounded=1;curved=0;fillColor=#d80073;strokeColor=#A50040;" parent="1" edge="1">
          <mxGeometry width="50" height="50" relative="1" as="geometry">
            <mxPoint x="280" y="840" as="sourcePoint" />
            <mxPoint x="330" y="840" as="targetPoint" />
          </mxGeometry>
        </mxCell>
        <mxCell id="yFJfsKkSlzlbEC3aJtm--50" value="" style="endArrow=classic;html=1;rounded=1;curved=0;fillColor=#d80073;strokeColor=#A50040;" parent="1" edge="1">
          <mxGeometry width="50" height="50" relative="1" as="geometry">
            <mxPoint x="420" y="810" as="sourcePoint" />
            <mxPoint x="430" y="780" as="targetPoint" />
          </mxGeometry>
        </mxCell>
        <mxCell id="yFJfsKkSlzlbEC3aJtm--51" value="" style="endArrow=classic;html=1;rounded=1;curved=0;fillColor=#d80073;strokeColor=#A50040;" parent="1" edge="1">
          <mxGeometry width="50" height="50" relative="1" as="geometry">
            <mxPoint x="380" y="730" as="sourcePoint" />
            <mxPoint x="360" y="720" as="targetPoint" />
          </mxGeometry>
        </mxCell>
        <mxCell id="yFJfsKkSlzlbEC3aJtm--53" value="" style="endArrow=classic;html=1;rounded=1;curved=0;fillColor=#d80073;strokeColor=#A50040;" parent="1" edge="1">
          <mxGeometry width="50" height="50" relative="1" as="geometry">
            <mxPoint x="260" y="690" as="sourcePoint" />
            <mxPoint x="220" y="690" as="targetPoint" />
          </mxGeometry>
        </mxCell>
        <mxCell id="yFJfsKkSlzlbEC3aJtm--54" value="" style="endArrow=classic;html=1;rounded=1;curved=0;fillColor=#d80073;strokeColor=#A50040;" parent="1" edge="1">
          <mxGeometry width="50" height="50" relative="1" as="geometry">
            <mxPoint x="150" y="710" as="sourcePoint" />
            <mxPoint x="130" y="740" as="targetPoint" />
          </mxGeometry>
        </mxCell>
        <mxCell id="yFJfsKkSlzlbEC3aJtm--55" value="" style="endArrow=classic;html=1;rounded=1;curved=0;fillColor=#d80073;strokeColor=#A50040;" parent="1" edge="1">
          <mxGeometry width="50" height="50" relative="1" as="geometry">
            <mxPoint x="240" y="520" as="sourcePoint" />
            <mxPoint x="250" y="490" as="targetPoint" />
          </mxGeometry>
        </mxCell>
        <mxCell id="yFJfsKkSlzlbEC3aJtm--57" value="" style="endArrow=classic;html=1;rounded=1;curved=0;fillColor=#d80073;strokeColor=#A50040;" parent="1" edge="1">
          <mxGeometry width="50" height="50" relative="1" as="geometry">
            <mxPoint x="470" y="530" as="sourcePoint" />
            <mxPoint x="490" y="560" as="targetPoint" />
          </mxGeometry>
        </mxCell>
        <mxCell id="yFJfsKkSlzlbEC3aJtm--58" value="" style="endArrow=classic;html=1;rounded=1;curved=0;fillColor=#d80073;strokeColor=#A50040;" parent="1" edge="1">
          <mxGeometry width="50" height="50" relative="1" as="geometry">
            <mxPoint x="500" y="655" as="sourcePoint" />
            <mxPoint x="480" y="710" as="targetPoint" />
          </mxGeometry>
        </mxCell>
        <mxCell id="yFJfsKkSlzlbEC3aJtm--59" value="" style="endArrow=classic;html=1;rounded=1;curved=0;fillColor=#d80073;strokeColor=#A50040;" parent="1" edge="1">
          <mxGeometry width="50" height="50" relative="1" as="geometry">
            <mxPoint x="350" y="610" as="sourcePoint" />
            <mxPoint x="300" y="650" as="targetPoint" />
          </mxGeometry>
        </mxCell>
        <mxCell id="yFJfsKkSlzlbEC3aJtm--60" value="" style="endArrow=classic;html=1;rounded=1;curved=0;fillColor=#d80073;strokeColor=#A50040;" parent="1" edge="1">
          <mxGeometry width="50" height="50" relative="1" as="geometry">
            <mxPoint x="300" y="510" as="sourcePoint" />
            <mxPoint x="260" y="520" as="targetPoint" />
          </mxGeometry>
        </mxCell>
        <mxCell id="yFJfsKkSlzlbEC3aJtm--61" value="" style="endArrow=classic;html=1;rounded=1;curved=0;fillColor=#d80073;strokeColor=#A50040;" parent="1" edge="1">
          <mxGeometry width="50" height="50" relative="1" as="geometry">
            <mxPoint x="280" y="460" as="sourcePoint" />
            <mxPoint x="310" y="470" as="targetPoint" />
          </mxGeometry>
        </mxCell>
      </root>
    </mxGraphModel>
  </diagram>
</mxfile>
